<?xml version="1.0" encoding="UTF-8"?>
<svg version="1.1" xmlns="http://www.w3.org/2000/svg" width="1036" height="241">
<path d="M0 0 C0.68429077 -0.00095673 1.36858154 -0.00191345 2.0736084 -0.00289917 C3.52286877 -0.0035808 4.97213218 -0.00172773 6.42138672 0.00244141 C8.64687928 0.00778998 10.87217001 0.0024959 13.09765625 -0.00390625 C14.50260461 -0.00324547 15.90755285 -0.0019643 17.3125 0 C18.59962891 0.00112793 19.88675781 0.00225586 21.21289062 0.00341797 C24.15625 0.1328125 24.15625 0.1328125 25.15625 1.1328125 C25.31753857 4.06093837 25.41632663 6.96766786 25.47265625 9.8984375 C25.49343735 10.80164734 25.51421844 11.70485718 25.53562927 12.63543701 C25.57903692 14.56566405 25.62006031 16.49594589 25.65893555 18.42626953 C25.71709999 21.3012547 25.78263216 24.17598952 25.84960938 27.05078125 C26.06460083 36.65545952 26.20687763 46.26012366 26.24609375 55.8671875 C26.25282608 56.7556134 26.25955841 57.64403931 26.26649475 58.55938721 C26.26741623 59.37993591 26.26833771 60.20048462 26.26928711 61.04589844 C26.27173935 61.76517517 26.27419159 62.4844519 26.27671814 63.2255249 C26.15625 65.1328125 26.15625 65.1328125 25.15625 68.1328125 C26.17332031 67.42705078 26.17332031 67.42705078 27.2109375 66.70703125 C38.57224623 59.10659896 47.60682705 56.78329952 61.03125 59.3203125 C71.82894191 61.77380734 80.54937164 66.13748816 87.04296875 75.25390625 C88.3522502 77.46360581 89.25428212 79.73168341 90.15625 82.1328125 C90.18130615 81.53218994 90.2063623 80.93156738 90.23217773 80.31274414 C90.3478028 77.60669813 90.47067936 74.90102967 90.59375 72.1953125 C90.65272461 70.77702148 90.65272461 70.77702148 90.71289062 69.33007812 C90.75478516 68.43095703 90.79667969 67.53183594 90.83984375 66.60546875 C90.87650146 65.77281494 90.91315918 64.94016113 90.95092773 64.08227539 C91.15625 62.1328125 91.15625 62.1328125 92.15625 61.1328125 C94.5319352 61.0444158 96.87833674 61.01750945 99.25390625 61.03515625 C100.31719398 61.03727867 100.31719398 61.03727867 101.40196228 61.03944397 C103.67426712 61.04505807 105.94647475 61.05761287 108.21875 61.0703125 C109.75585796 61.07532569 111.29296745 61.07988891 112.83007812 61.08398438 C116.60550642 61.09503208 120.38086171 61.11230609 124.15625 61.1328125 C124.81625 63.1128125 125.47625 65.0928125 126.15625 67.1328125 C126.68992187 66.73449219 127.22359375 66.33617188 127.7734375 65.92578125 C136.82667629 59.48827062 145.37341156 56.92899217 156.4140625 58.63671875 C166.88533894 60.61563168 178.11191112 63.98081114 184.55859375 73.12109375 C185.80698094 75.10042069 186.98627478 77.10655106 188.15625 79.1328125 C188.81625 80.1228125 189.47625 81.1128125 190.15625 82.1328125 C190.75050781 81.41996094 191.34476562 80.70710938 191.95703125 79.97265625 C203.90122409 66.17089065 217.85209468 59.29283491 236.09375 57.91015625 C251.65275745 57.43428235 266.51248076 61.74556512 278.15625 72.1328125 C280.89301029 74.73560551 283.53977838 77.40978773 286.15625 80.1328125 C287.15399012 81.13506728 288.15317783 82.13589414 289.15625 83.1328125 C289.65511719 82.44316406 290.15398438 81.75351563 290.66796875 81.04296875 C300.5832834 68.06583342 312.77734821 60.49137436 329.15625 58.1328125 C340.41683054 57.11446435 355.03571057 58.97825602 364.15625 66.1328125 C365.39192668 69.1043207 365.20454029 69.98794163 364.15625 73.1328125 C364.68992187 72.61332031 365.22359375 72.09382813 365.7734375 71.55859375 C376.17943544 61.81872371 387.02917678 57.56037864 401.296875 57.8828125 C410.15699589 58.65746788 417.69085961 61.36325753 425.15625 66.1328125 C425.81625 64.4828125 426.47625 62.8328125 427.15625 61.1328125 C431.69522705 61.10815858 436.23416543 61.08997461 440.77319336 61.07788086 C442.31844766 61.0728411 443.86369716 61.0660093 445.40893555 61.05737305 C447.62550029 61.04529174 449.84200218 61.03958077 452.05859375 61.03515625 C452.7533934 61.02999496 453.44819305 61.02483368 454.16404724 61.01951599 C455.8285433 61.01931973 457.49290499 61.07092121 459.15625 61.1328125 C461.02749497 63.00405747 460.3302999 66.17479728 460.36157227 68.67211914 C460.37147186 69.35501511 460.38137146 70.03791107 460.39157104 70.74150085 C460.42326935 73.00862103 460.44797613 75.27576219 460.47265625 77.54296875 C460.4932186 79.11096251 460.51421488 80.67895063 460.53562927 82.24693298 C460.59092424 86.38151498 460.64030062 90.51614761 460.68847656 94.65081787 C460.73863753 98.86686733 460.79435174 103.08284293 460.84960938 107.29882812 C460.95728173 115.57676226 461.05819345 123.85475887 461.15625 132.1328125 C463.46625 128.1728125 465.77625 124.2128125 468.15625 120.1328125 C471.61509604 120.99752401 473.14865904 121.61243568 475.96875 123.5078125 C482.65256672 127.76227148 488.19252858 129.97622088 496.15625 129.1328125 C496.81625 128.8028125 497.47625 128.4728125 498.15625 128.1328125 C498.15625 126.1528125 498.15625 124.1728125 498.15625 122.1328125 C497.63828857 121.93236328 497.12032715 121.73191406 496.58666992 121.52539062 C470.26668449 111.22055114 470.26668449 111.22055114 463.15625 99.1328125 C460.88325224 92.31381922 461.01439901 82.85964013 463.65625 76.1328125 C468.25290573 67.53836112 476.7493254 62.96730477 485.65625 59.9453125 C501.41596066 56.28680824 517.11144125 58.49100922 532.15625 64.1328125 C532.15625 63.1428125 532.15625 62.1528125 532.15625 61.1328125 C536.69522705 61.10815858 541.23416543 61.08997461 545.77319336 61.07788086 C547.31844766 61.0728411 548.86369716 61.0660093 550.40893555 61.05737305 C552.62550029 61.04529174 554.84200218 61.03958077 557.05859375 61.03515625 C557.7533934 61.02999496 558.44819305 61.02483368 559.16404724 61.01951599 C560.8285433 61.01931973 562.49290499 61.07092121 564.15625 61.1328125 C565.15625 62.1328125 565.15625 62.1328125 565.21875 65.1953125 C565.198125 66.1646875 565.1775 67.1340625 565.15625 68.1328125 C565.83429687 67.66230469 566.51234375 67.19179687 567.2109375 66.70703125 C576.96710882 60.18039587 586.08627497 56.33960827 597.8828125 58.671875 C607.00105746 60.95771602 613.93120768 63.97401383 620.15625 71.1328125 C620.15625 71.7928125 620.15625 72.4528125 620.15625 73.1328125 C621.14625 73.1328125 622.13625 73.1328125 623.15625 73.1328125 C623.41277344 72.5346875 623.66929687 71.9365625 623.93359375 71.3203125 C627.87715856 64.26473329 637.29885031 60.55449046 644.71875 58.3828125 C655.79215327 57.24707883 667.07633967 59.38823419 676.15625 66.1328125 C683.1055397 72.56734 686.89149726 79.66918083 687.28323364 89.23297119 C687.28402924 90.39133484 687.28482483 91.54969849 687.28564453 92.74316406 C687.29037277 94.71981049 687.29037277 94.71981049 687.29519653 96.73638916 C687.29340728 98.16540562 687.29135646 99.59442177 687.2890625 101.0234375 C687.28973637 102.49363216 687.2907071 103.96382672 687.29196167 105.434021 C687.29343286 108.50713162 687.29130145 111.58021309 687.28662109 114.65332031 C687.28090401 118.60015283 687.28421892 122.54691764 687.29019356 126.49374771 C687.29379767 129.52537553 687.29266163 132.55698713 687.29006577 135.58861542 C687.28939712 137.04473631 687.29022276 138.50085865 687.29254532 139.95697784 C687.2950715 141.98466465 687.29054171 144.0123566 687.28564453 146.04003906 C687.28445114 147.77281097 687.28445114 147.77281097 687.28323364 149.54058838 C687.15625 152.1328125 687.15625 152.1328125 686.15625 153.1328125 C683.7805648 153.2212092 681.43416326 153.24811555 679.05859375 153.23046875 C677.99530602 153.22834633 677.99530602 153.22834633 676.91053772 153.22618103 C674.63823288 153.22056693 672.36602525 153.20801213 670.09375 153.1953125 C668.55664204 153.19029931 667.01953255 153.18573609 665.48242188 153.18164062 C661.70699358 153.17059292 657.93163829 153.15331891 654.15625 153.1328125 C652.88620641 150.59272531 653.01788616 148.79575618 652.99853516 145.95214844 C652.98314194 144.32971222 652.98314194 144.32971222 652.96743774 142.67449951 C652.96013641 141.50058655 652.95283508 140.32667358 652.9453125 139.1171875 C652.91723992 136.64452468 652.88857543 134.17186851 652.859375 131.69921875 C652.81812578 127.79085503 652.78124867 123.88261515 652.75488281 119.97412109 C652.72726496 116.20904648 652.6813858 112.4445423 652.6328125 108.6796875 C652.6279332 106.93096344 652.6279332 106.93096344 652.62295532 105.14691162 C652.51391223 97.22211278 652.51391223 97.22211278 649.15625 90.1328125 C645.3214825 86.64666023 641.49608732 86.8092077 636.55859375 86.83203125 C633.808519 87.17634955 632.38066478 87.45409615 630.15625 89.1328125 C626.48768706 95.56224688 626.69963138 101.76173674 626.6796875 109.03125 C626.66410797 110.26195221 626.64852844 111.49265442 626.63247681 112.76065063 C626.58507934 116.6763653 626.55721821 120.59190208 626.53125 124.5078125 C626.49660998 128.44502787 626.45426548 132.38214121 626.40859985 136.31924438 C626.38129826 138.76642902 626.35997987 141.21368877 626.34506226 143.66098022 C626.33480011 144.75947296 626.32453796 145.8579657 626.31396484 146.98974609 C626.30746918 147.96124603 626.30097351 148.93274597 626.29428101 149.9336853 C626.15625 152.1328125 626.15625 152.1328125 625.15625 153.1328125 C622.79226532 153.2335937 620.45813689 153.27254465 618.09375 153.265625 C617.38726318 153.26658173 616.68077637 153.26753845 615.95288086 153.26852417 C614.45654207 153.26920583 612.96020033 153.26735255 611.46386719 153.26318359 C609.16594843 153.25783507 606.86822514 153.26312901 604.5703125 153.26953125 C603.11979123 153.26887047 601.66927009 153.2675893 600.21875 153.265625 C599.1812561 153.26866135 599.1812561 153.26866135 598.12280273 153.27175903 C593.27120224 153.24776474 593.27120224 153.24776474 592.15625 152.1328125 C592.05396837 150.38491988 592.02054378 148.63295199 592.0144043 146.88208008 C592.00736984 145.7603389 592.00033539 144.63859772 591.99308777 143.48286438 C591.98892349 142.26004257 591.98475922 141.03722076 591.98046875 139.77734375 C591.95726524 137.21027831 591.93314769 134.64322099 591.90820312 132.07617188 C591.87183751 128.01196335 591.84207675 123.94790444 591.83032227 119.88354492 C591.81826967 115.97286129 591.77462836 112.06280004 591.73046875 108.15234375 C591.73333138 106.33329277 591.73333138 106.33329277 591.73625183 104.47749329 C591.64399324 98.11373525 591.55079965 93.91942946 587.15625 89.1328125 C584.1971905 87.05669818 581.72740281 86.86103718 578.15625 86.8828125 C577.310625 86.87765625 576.465 86.8725 575.59375 86.8671875 C572.84812724 87.16638998 571.39792811 87.50759587 569.15625 89.1328125 C565.08292887 94.96088178 565.69798894 101.32939121 565.6796875 108.15234375 C565.66410797 109.40665695 565.64852844 110.66097015 565.63247681 111.95329285 C565.59307226 115.27212441 565.56568022 118.59057757 565.54498291 121.9095459 C565.5133186 126.603463 565.46198511 131.29717725 565.40859985 135.9908905 C565.38128732 138.48815558 565.35997377 140.98549447 565.34506226 143.48286438 C565.33480011 144.60460556 565.32453796 145.72634674 565.31396484 146.88208008 C565.30746918 147.87436111 565.30097351 148.86664215 565.29428101 149.88899231 C565.15625 152.1328125 565.15625 152.1328125 564.15625 153.1328125 C561.7805648 153.2212092 559.43416326 153.24811555 557.05859375 153.23046875 C555.99530602 153.22834633 555.99530602 153.22834633 554.91053772 153.22618103 C552.63823288 153.22056693 550.36602525 153.20801213 548.09375 153.1953125 C546.55664204 153.19029931 545.01953255 153.18573609 543.48242188 153.18164062 C539.70699358 153.17059292 535.93163829 153.15331891 532.15625 153.1328125 C530.66126087 150.14283425 531.04047554 147.43238475 531.15625 144.1328125 C531.48625 143.1428125 531.81625 142.1528125 532.15625 141.1328125 C531.228125 142.1846875 531.228125 142.1846875 530.28125 143.2578125 C519.56199858 153.88647869 505.10501559 156.39276143 490.57421875 156.45410156 C480.1509591 156.27783986 470.20341779 153.30262267 461.15625 148.1328125 C460.49625 149.7828125 459.83625 151.4328125 459.15625 153.1328125 C448.59625 153.1328125 438.03625 153.1328125 427.15625 153.1328125 C427.15625 150.8228125 427.15625 148.5128125 427.15625 146.1328125 C426.16625 146.7103125 425.17625 147.2878125 424.15625 147.8828125 C411.55374912 155.03352729 400.59562404 158.17153899 386.03125 155.0078125 C376.63421969 152.37910075 369.60474796 147.35000558 363.15625 140.1328125 C363.48625 140.8959375 363.81625 141.6590625 364.15625 142.4453125 C365.15625 145.1328125 365.15625 145.1328125 365.15625 148.1328125 C351.61769037 156.03030562 335.62308946 158.32675158 320.46875 154.5078125 C307.81115615 150.77811082 295.76783596 142.85335125 289.15625 131.1328125 C288.41375 132.1228125 288.41375 132.1228125 287.65625 133.1328125 C278.15052897 144.53967774 266.95498965 152.33492579 252.15625 155.1328125 C251.19589844 155.31457031 250.23554687 155.49632812 249.24609375 155.68359375 C232.90021261 158.06004929 217.1094051 154.78273891 203.15625 146.1328125 C198.4887234 142.60418872 194.56522715 138.89271558 191.15625 134.1328125 C191.09566406 135.42058594 191.03507812 136.70835937 190.97265625 138.03515625 C190.88826753 139.71355409 190.8036187 141.39193886 190.71875 143.0703125 C190.65977539 144.34551758 190.65977539 144.34551758 190.59960938 145.64648438 C190.55771484 146.45537109 190.51582031 147.26425781 190.47265625 148.09765625 C190.43599854 148.846521 190.39934082 149.59538574 190.36157227 150.36694336 C190.15625 152.1328125 190.15625 152.1328125 189.15625 153.1328125 C186.7805648 153.2212092 184.43416326 153.24811555 182.05859375 153.23046875 C180.99530602 153.22834633 180.99530602 153.22834633 179.91053772 153.22618103 C177.63823288 153.22056693 175.36602525 153.20801213 173.09375 153.1953125 C171.55664204 153.19029931 170.01953255 153.18573609 168.48242188 153.18164062 C164.70699358 153.17059292 160.93163829 153.15331891 157.15625 153.1328125 C155.88620641 150.59272531 156.01788616 148.79575618 155.99853516 145.95214844 C155.98314194 144.32971222 155.98314194 144.32971222 155.96743774 142.67449951 C155.96013641 141.50058655 155.95283508 140.32667358 155.9453125 139.1171875 C155.91723992 136.64452468 155.88857543 134.17186851 155.859375 131.69921875 C155.81812578 127.79085503 155.78124867 123.88261515 155.75488281 119.97412109 C155.72726496 116.20904648 155.6813858 112.4445423 155.6328125 108.6796875 C155.6279332 106.93096344 155.6279332 106.93096344 155.62295532 105.14691162 C155.51320929 97.22268768 155.51320929 97.22268768 152.15625 90.1328125 C148.90918595 87.19016071 146.24272349 86.2148105 141.84375 85.8828125 C136.36271292 86.25440823 132.86984359 88.13497073 129.02075195 91.96362305 C124.81589105 97.01265424 125.32030673 102.47520087 125.38671875 108.77734375 C125.37538406 109.98347824 125.36404938 111.18961273 125.35237122 112.43229675 C125.32171255 116.27041001 125.33148279 120.10711854 125.34375 123.9453125 C125.32959179 127.80090542 125.30725137 131.65635452 125.28157043 135.5118866 C125.26850456 137.90794282 125.26379424 140.30406158 125.26811218 142.70014954 C125.26753311 143.77854599 125.26695404 144.85694244 125.26635742 145.96801758 C125.26891037 146.91953201 125.27146332 147.87104645 125.27409363 148.85139465 C125.15625 151.1328125 125.15625 151.1328125 124.15625 153.1328125 C115.5681928 153.15593885 106.98014851 153.17372908 98.39206791 153.18462467 C94.404678 153.18985286 90.41730933 153.19694934 86.42993164 153.20825195 C82.58499886 153.21908311 78.74008655 153.22508982 74.89513969 153.22768974 C73.42506017 153.22954358 71.95498182 153.23316341 70.48491096 153.23854256 C68.43270533 153.24575605 66.38058533 153.24680331 64.32836914 153.24633789 C63.15810684 153.2485585 61.98784454 153.25077911 60.78211975 153.25306702 C58.15625 153.1328125 58.15625 153.1328125 57.15625 152.1328125 C57.05410487 150.45678961 57.02054958 148.77653349 57.0144043 147.09741211 C57.00736984 146.02216782 57.00033539 144.94692352 56.99308777 143.83909607 C56.98892349 142.66629593 56.98475922 141.49349579 56.98046875 140.28515625 C56.9572588 137.81835095 56.93314099 135.35155406 56.90820312 132.88476562 C56.87315454 128.98309816 56.84378943 125.08173698 56.83032227 121.17993164 C56.81480449 117.42295768 56.77455204 113.66688969 56.73046875 109.91015625 C56.73333138 108.17221046 56.73333138 108.17221046 56.73625183 106.39915466 C56.63309906 99.53535344 55.89801682 94.94930684 52.15625 89.1328125 C47.86431636 86.0807708 44.35200312 85.50573885 39.15625 86.1328125 C33.37876975 88.05141288 29.98183676 90.59466245 27.15625 96.1328125 C26.28129551 99.61428232 26.04745739 102.81296177 26.09375 106.39453125 C26.10212891 107.41949707 26.11050781 108.44446289 26.11914062 109.50048828 C26.13138672 110.59603027 26.14363281 111.69157227 26.15625 112.8203125 C26.24057182 126.27922424 25.78133185 139.69022792 25.15625 153.1328125 C23.5316687 153.10924683 23.5316687 153.10924683 21.87426758 153.08520508 C17.79459286 153.03024928 13.71494971 152.99622773 9.63500977 152.96801758 C7.88072173 152.95307858 6.12647006 152.93271988 4.37231445 152.90649414 C-5.09748785 152.76862377 -13.8628445 152.81523258 -23.05566406 155.4465332 C-35.73477332 158.56745931 -48.6931683 154.85194988 -59.9453125 148.9453125 C-66.37190344 144.92652787 -71.52619969 139.47453349 -76.84375 134.1328125 C-77.215 134.98552734 -77.215 134.98552734 -77.59375 135.85546875 C-83.09389173 145.87603947 -92.96827253 150.83277146 -103.48828125 153.8972168 C-118.16638082 157.83511516 -133.29804076 157.54678975 -147.0546875 150.484375 C-151.86733221 147.529695 -156.11295061 144.37820491 -159.84375 140.1328125 C-159.66457031 140.74769531 -159.48539062 141.36257812 -159.30078125 141.99609375 C-159.08808594 142.80433594 -158.87539062 143.61257812 -158.65625 144.4453125 C-158.43582031 145.24582031 -158.21539062 146.04632813 -157.98828125 146.87109375 C-157.84375 149.1328125 -157.84375 149.1328125 -158.859375 150.7890625 C-167.40321846 156.57465728 -180.69345856 157.3921797 -190.52734375 155.66015625 C-198.12784367 153.72821791 -204.17709715 149.95074878 -208.65625 143.4453125 C-214.90832812 131.81928905 -214.20642343 119.76382097 -214.03125 106.9453125 C-214.01617581 105.02019276 -214.00249225 103.09506161 -213.99023438 101.16992188 C-213.95744566 96.49059966 -213.90581443 91.81183424 -213.84375 87.1328125 C-214.69839844 87.14441406 -215.55304688 87.15601562 -216.43359375 87.16796875 C-217.53832031 87.17699219 -218.64304687 87.18601562 -219.78125 87.1953125 C-220.88339844 87.20691406 -221.98554688 87.21851562 -223.12109375 87.23046875 C-225.84375 87.1328125 -225.84375 87.1328125 -226.84375 86.1328125 C-226.94321453 84.36422057 -226.97455217 82.59169799 -226.9765625 80.8203125 C-226.97785156 79.74523437 -226.97914063 78.67015625 -226.98046875 77.5625 C-226.97466797 75.86480469 -226.97466797 75.86480469 -226.96875 74.1328125 C-226.97261719 73.00101562 -226.97648437 71.86921875 -226.98046875 70.703125 C-226.97917969 69.62804687 -226.97789062 68.55296875 -226.9765625 67.4453125 C-226.97543457 66.45144531 -226.97430664 65.45757812 -226.97314453 64.43359375 C-226.84375 62.1328125 -226.84375 62.1328125 -225.84375 61.1328125 C-221.88375 61.1328125 -217.92375 61.1328125 -213.84375 61.1328125 C-213.84375 50.2428125 -213.84375 39.3528125 -213.84375 28.1328125 C-209.53702058 25.97944779 -203.77049995 26.94695772 -198.98535156 26.94750977 C-196.85201135 26.94532098 -194.71918634 26.92715331 -192.5859375 26.90820312 C-191.23437677 26.90526956 -189.88281358 26.90328452 -188.53125 26.90234375 C-187.29761719 26.89823486 -186.06398437 26.89412598 -184.79296875 26.88989258 C-181.84375 27.1328125 -181.84375 27.1328125 -179.84375 29.1328125 C-179.61669922 32.20556641 -179.61669922 32.20556641 -179.6484375 36.109375 C-179.6512674 36.7946225 -179.65409729 37.47987 -179.65701294 38.18588257 C-179.66821719 40.37670277 -179.69332141 42.56711566 -179.71875 44.7578125 C-179.72877952 46.2421816 -179.73790542 47.7265571 -179.74609375 49.2109375 C-179.76645677 52.85184606 -179.80560279 56.49187282 -179.84375 60.1328125 C-173.90375 60.4628125 -167.96375 60.7928125 -161.84375 61.1328125 C-160.55928081 63.70175088 -160.51397856 65.89857587 -160.28125 68.7578125 C-160.15556641 70.26214844 -160.15556641 70.26214844 -160.02734375 71.796875 C-159.96675781 72.56773438 -159.90617187 73.33859375 -159.84375 74.1328125 C-159.42867188 73.70871094 -159.01359375 73.28460938 -158.5859375 72.84765625 C-150.29647666 64.95706068 -139.35187145 59.13431041 -127.84375 58.1328125 C-126.9465625 58.05160156 -126.049375 57.97039062 -125.125 57.88671875 C-110.11185766 57.22081324 -95.75871838 62.12352121 -84.640625 72.21875 C-81.83521114 75.20712563 -79.78566628 78.53840016 -77.84375 82.1328125 C-77.121875 81.4109375 -76.4 80.6890625 -75.65625 79.9453125 C-74.2640625 78.553125 -74.2640625 78.553125 -72.84375 77.1328125 C-72.06 76.3284375 -71.27625 75.5240625 -70.46875 74.6953125 C-69.6025 73.8496875 -68.73625 73.0040625 -67.84375 72.1328125 C-67.37710938 71.6584375 -66.91046875 71.1840625 -66.4296875 70.6953125 C-56.95489569 61.73393306 -43.64317993 57.60452016 -30.765625 57.87109375 C-26.9571271 58.21222926 -23.22894319 58.82179123 -19.46875 59.5078125 C-18.7782959 59.63373779 -18.0878418 59.75966309 -17.37646484 59.8894043 C-13.88711279 60.57522478 -10.97174271 61.467927 -7.84375 63.1328125 C-7.84597061 62.35829239 -7.84819122 61.58377228 -7.85047913 60.78578186 C-7.87048134 53.50160229 -7.88572377 46.21743595 -7.89556217 38.93323612 C-7.90079014 35.18798213 -7.90788622 31.44275074 -7.91918945 27.69750977 C-7.93002141 24.08599563 -7.93602749 20.47450329 -7.93862724 16.86297417 C-7.94048094 15.48220921 -7.94410049 14.1014455 -7.94948006 12.72068977 C-7.95669447 10.79305298 -7.95715809 8.86539443 -7.95727539 6.93774414 C-7.959496 5.83854141 -7.96171661 4.73933868 -7.96400452 3.60682678 C-7.72101925 -1.39214577 -4.27114023 0.00374286 0 0 Z M-135.84375 87.6953125 C-137.03352818 90.15628767 -137.03352818 90.15628767 -136.84375 93.1328125 C-126.94375 93.1328125 -117.04375 93.1328125 -106.84375 93.1328125 C-107.83820219 88.16055154 -108.43877292 86.63237227 -111.84375 83.1328125 C-119.68785338 78.42635047 -130.31020028 80.60545192 -135.84375 87.6953125 Z M530.15625 73.1328125 C526.69125 80.0628125 526.69125 80.0628125 523.15625 87.1328125 C520.68229167 86.38411458 518.20833333 85.63541667 515.734375 84.88671875 C514.88359375 84.63792969 514.0328125 84.38914062 513.15625 84.1328125 C512.52460937 83.93816406 511.89296875 83.74351563 511.2421875 83.54296875 C508.32232823 82.96883912 505.50402091 83.00110196 502.53125 83.0078125 C501.38398437 83.00523438 500.23671875 83.00265625 499.0546875 83 C496.21648956 82.93360803 496.21648956 82.93360803 494.15625 84.1328125 C494.15625 85.7828125 494.15625 87.4328125 494.15625 89.1328125 C498.69502763 91.57676969 503.04181046 93.4789838 507.96875 95.0078125 C516.54112719 97.77484564 524.05269549 101.43859142 530.15625 108.1328125 C530.81625 108.1328125 531.47625 108.1328125 532.15625 108.1328125 C532.15625 96.5828125 532.15625 85.0328125 532.15625 73.1328125 C531.49625 73.1328125 530.83625 73.1328125 530.15625 73.1328125 Z M-8.84375 83.1328125 C-10.20551581 85.11356277 -11.53968116 87.11360913 -12.84375 89.1328125 C-13.59398437 88.90464844 -14.34421875 88.67648438 -15.1171875 88.44140625 C-23.30374019 86.14216034 -30.77207226 84.83271539 -38.65625 88.7578125 C-43.17539084 92.12501548 -46.05872378 95.77773385 -47.84375 101.1328125 C-48.51759247 108.58926611 -48.40247192 114.95985462 -43.84375 121.1328125 C-39.37757821 125.72304461 -33.84430535 127.72889159 -27.59375 128.5703125 C-22.06923808 127.92578611 -17.0462914 126.04639095 -11.84375 124.1328125 C-11.18375 126.1128125 -10.52375 128.0928125 -9.84375 130.1328125 C-9.18375 130.1328125 -8.52375 130.1328125 -7.84375 130.1328125 C-7.84375 114.6228125 -7.84375 99.1128125 -7.84375 83.1328125 C-8.17375 83.1328125 -8.50375 83.1328125 -8.84375 83.1328125 Z M323.21875 93.1328125 C318.64766662 99.78166105 318.40647256 105.10634886 319.15625 113.1328125 C320.69507072 119.16148356 324.20534672 122.45511425 329.15625 126.00390625 C333.4997997 128.45563645 338.26055161 128.75384837 343.15625 128.1328125 C346.90922932 127.00049068 350.53269211 125.62486575 354.15625 124.1328125 C354.04796875 123.16794922 354.04796875 123.16794922 353.9375 122.18359375 C352.83319018 111.43191065 352.80006142 100.86123285 354.15625 90.1328125 C343.30109191 85.66304152 331.94135208 83.02485597 323.21875 93.1328125 Z M-179.84375 87.1328125 C-179.91800143 91.90165817 -179.97239936 96.6701661 -180.00854492 101.43945312 C-180.02361565 103.06125756 -180.04407593 104.68302134 -180.07006836 106.3046875 C-180.10652829 108.63812296 -180.12349314 110.97101881 -180.13671875 113.3046875 C-180.15220261 114.02775085 -180.16768646 114.75081421 -180.18363953 115.49578857 C-180.18468165 118.6250391 -180.00936904 120.82223464 -178.5246582 123.60644531 C-176.82650845 125.46145577 -176.82650845 125.46145577 -173.65625 125.3828125 C-172.728125 125.3003125 -171.8 125.2178125 -170.84375 125.1328125 C-171.09125 123.43125 -171.09125 123.43125 -171.34375 121.6953125 C-172.63241608 109.68039643 -172.36882275 98.73617696 -168.84375 87.1328125 C-172.47375 87.1328125 -176.10375 87.1328125 -179.84375 87.1328125 Z M223.15625 94.1328125 C219.42627182 99.99420679 218.59520935 105.95406862 219.71875 112.6953125 C220.99398211 117.55294008 223.19491801 121.02274547 227.15625 124.1328125 C232.23917887 126.72972707 237.47126553 127.85635598 243.15625 127.1328125 C249.3684497 124.91502144 254.45131166 121.54268918 257.46875 115.5078125 C258.80810784 108.93278309 259.51245605 102.6572079 255.96875 96.6953125 C252.24537111 91.580896 248.35728485 88.65143328 242.15625 87.1328125 C234.98271841 86.35308081 228.22896915 89.06009335 223.15625 94.1328125 Z M392.21875 94.0703125 C387.58794108 99.5450046 387.58725688 105.18680213 388.15625 112.1328125 C389.88633675 118.23900102 392.99590484 121.67416574 398.15625 125.1328125 C403.85207822 127.74340044 408.86033688 127.92450668 414.78125 125.8828125 C420.67812289 122.82517471 424.51854399 119.59928344 426.84375 113.2578125 C427.90813354 106.02000444 427.12615382 99.90132598 422.84375 93.8828125 C418.23359109 89.16544059 414.36872183 87.37992572 407.90625 86.8828125 C401.12279769 87.33504265 396.8506893 88.98370431 392.21875 94.0703125 Z M-137.84375 113.1328125 C-136.78038941 119.51297603 -135.76274357 122.17167569 -130.84375 126.1328125 C-124.52283655 129.32046765 -117.65627909 130.1193503 -110.84375 128.1328125 C-106.72337483 125.9688292 -103.13362549 123.42268799 -99.84375 120.1328125 C-95.1446025 120.44161362 -91.69776538 122.04081927 -87.59375 124.2578125 C-85.70804519 125.27571783 -83.79637081 126.25004081 -81.84375 127.1328125 C-81.18375 126.8028125 -80.52375 126.4728125 -79.84375 126.1328125 C-81.16375 121.8428125 -82.48375 117.5528125 -83.84375 113.1328125 C-101.66375 113.1328125 -119.48375 113.1328125 -137.84375 113.1328125 Z " fill="#FEFEFE" transform="translate(270.84375,18.8671875)"/>
<path d="M0 0 C1.32 0 2.64 0 4 0 C5.32 2.31 6.64 4.62 8 7 C8.86625 5.824375 8.86625 5.824375 9.75 4.625 C11.82897637 2.19952756 13.09040333 1.14305583 16 0 C17.98784899 1.98784899 17.22997787 5.72700407 17.25 8.4375 C17.270625 9.13166016 17.29125 9.82582031 17.3125 10.54101562 C17.328125 12.55859375 17.328125 12.55859375 17 16 C16.01 16.66 15.02 17.32 14 18 C13.34 15.69 12.68 13.38 12 11 C11.34 11.66 10.68 12.32 10 13 C7.9375 12.75 7.9375 12.75 6 12 C5.67 11.34 5.34 10.68 5 10 C4.34 12.64 3.68 15.28 3 18 C2.01 17.67 1.02 17.34 0 17 C0 11.39 0 5.78 0 0 Z " fill="#FDFDFD" transform="translate(717,193)"/>
<path d="M0 0 C0.99 0 1.98 0 3 0 C4.48619895 2.97239791 4.13177009 5.69619578 4.125 9 C4.12757813 10.258125 4.13015625 11.51625 4.1328125 12.8125 C4 16 4 16 3 18 C0.01793048 18.8589328 -2.90338888 19.12451408 -6 19 C-8.5625 17.4375 -8.5625 17.4375 -10 15 C-10.49214954 11.62526031 -10.33486373 9.70693454 -8.875 6.625 C-7 5 -7 5 -3.8125 4.75 C-2.884375 4.8325 -1.95625 4.915 -1 5 C-0.67 3.35 -0.34 1.7 0 0 Z M-5 9 C-5.33 10.65 -5.66 12.3 -6 14 C-3.525 14.495 -3.525 14.495 -1 15 C0.01111093 11.95086772 0.01111093 11.95086772 -1 9 C-2.32 9 -3.64 9 -5 9 Z " fill="#FDFDFD" transform="translate(810,192)"/>
<path d="M0 0 C0.99 0 1.98 0 3 0 C3 3.3 3 6.6 3 10 C4.32 10 5.64 10 7 10 C7 6.7 7 3.4 7 0 C8.32 0.33 9.64 0.66 11 1 C11.08126087 3.08268593 11.13930839 5.16628658 11.1875 7.25 C11.22230469 8.41015625 11.25710938 9.5703125 11.29296875 10.765625 C10.97630338 14.26161073 10.58170523 15.64880417 8 18 C5.23857697 18.52799676 2.83634455 18.18598981 0 18 C-0.98357297 12.34445544 -1.37394574 6.74116691 -1 1 C-0.67 0.67 -0.34 0.34 0 0 Z " fill="#FDFDFD" transform="translate(593,197)"/>
<path d="M0 0 C2.01822917 0.06510417 4.03645833 0.13020833 6.0546875 0.1953125 C6.7146875 1.5153125 7.3746875 2.8353125 8.0546875 4.1953125 C5.16234435 5.02169626 3.16726319 5.1953125 0.0546875 5.1953125 C0.9209375 5.64970703 0.9209375 5.64970703 1.8046875 6.11328125 C4.02079297 7.36368798 6.06643313 8.60557535 8.0546875 10.1953125 C8.7421875 12.8203125 8.7421875 12.8203125 8.0546875 15.1953125 C6.9296875 17.0078125 6.9296875 17.0078125 5.0546875 18.1953125 C1.58901343 18.63773898 -0.27745787 18.58196518 -3.3203125 16.8203125 C-3.8565625 16.2840625 -4.3928125 15.7478125 -4.9453125 15.1953125 C-4.9453125 14.5353125 -4.9453125 13.8753125 -4.9453125 13.1953125 C-1.9753125 13.5253125 0.9946875 13.8553125 4.0546875 14.1953125 C2.66093678 11.40781106 0.89223889 11.30264963 -1.9453125 10.1953125 C-3.9453125 8.1953125 -3.9453125 8.1953125 -4.1953125 5.1953125 C-3.91874762 1.87653392 -3.53131274 0.35454947 0 0 Z " fill="#FDFDFD" transform="translate(150.9453125,192.8046875)"/>
<path d="M0 0 C3.5 0.5 3.5 0.5 5.5 2 C7.03520468 5.83801169 6.34646659 8.46300551 5.5 12.5 C3.5 14.5 3.5 14.5 0.625 14.875 C-2.5 14.5 -2.5 14.5 -4.875 12.875 C-6.9753727 9.80522452 -7.03293835 8.15443439 -6.5 4.5 C-4.87055931 0.85772081 -4.00024745 0.57146392 0 0 Z M-1.5 9.5 C2.5 10.5 2.5 10.5 2.5 10.5 Z " fill="#FDFDFD" transform="translate(181.5,196.5)"/>
<path d="M0 0 C0.79148437 -0.02578125 1.58296875 -0.0515625 2.3984375 -0.078125 C4.625 0.25 4.625 0.25 6.421875 1.54296875 C7.625 3.25 7.625 3.25 7.5 6.8125 C6.625 10.25 6.625 10.25 3.625 12.25 C0.9375 12.375 0.9375 12.375 -1.375 12.25 C-1.375 13.9 -1.375 15.55 -1.375 17.25 C-2.365 17.25 -3.355 17.25 -4.375 17.25 C-6.13059942 15.49440058 -5.50721919 13.21417558 -5.51171875 10.87890625 C-5.50785156 10.17636719 -5.50398438 9.47382813 -5.5 8.75 C-5.50386719 8.04746094 -5.50773437 7.34492188 -5.51171875 6.62109375 C-5.49916709 0.10677994 -5.49916709 0.10677994 0 0 Z M-1.375 4.25 C-1.375 5.57 -1.375 6.89 -1.375 8.25 C0.275 7.92 1.925 7.59 3.625 7.25 C3.625 6.26 3.625 5.27 3.625 4.25 C1.975 4.25 0.325 4.25 -1.375 4.25 Z " fill="#FDFDFD" transform="translate(517.375,192.75)"/>
<path d="M0 0 C2.4375 2.0625 2.4375 2.0625 4 5 C3.9375 8.6875 3.9375 8.6875 3 12 C0 14 0 14 -3.5625 13.8125 C-7 13 -7 13 -9 10 C-9.54170249 3.93293207 -9.54170249 3.93293207 -7.875 1.0625 C-5.0300175 -0.54965675 -3.2088071 -0.52388687 0 0 Z M-4 9 C0 10 0 10 0 10 Z " fill="#FDFDFD" transform="translate(394,197)"/>
<path d="M0 0 C1.32 0.33 2.64 0.66 4 1 C4 2.32 4 3.64 4 5 C5.134375 5.12375 6.26875 5.2475 7.4375 5.375 C8.613125 5.58125 9.78875 5.7875 11 6 C12.17051429 8.34102859 12.1992246 9.89352953 12.25 12.5 C12.28867187 13.69109375 12.28867187 13.69109375 12.328125 14.90625 C12.21984375 15.5971875 12.1115625 16.288125 12 17 C11.01 17.66 10.02 18.32 9 19 C6.95301586 16.95301586 7.29954307 12.69588759 7 10 C6.01 9.67 5.02 9.34 4 9 C4 11.97 4 14.94 4 18 C2.68 18 1.36 18 0 18 C0 12.06 0 6.12 0 0 Z " fill="#FDFDFD" transform="translate(441,192)"/>
<path d="M0 0 C2.50651042 0.13020833 5.01302083 0.26041667 7.51953125 0.390625 C7.51953125 4.680625 7.51953125 8.970625 7.51953125 13.390625 C2.71429952 14.35167135 -0.15897449 14.911604 -4.29296875 12.203125 C-6.07053438 9.48999851 -5.8689881 7.56353304 -5.48046875 4.390625 C-3.91567049 1.55156106 -3.26501054 0.51417489 0 0 Z M-0.48046875 4.390625 C-0.81046875 6.040625 -1.14046875 7.690625 -1.48046875 9.390625 C0.99453125 9.885625 0.99453125 9.885625 3.51953125 10.390625 C3.51953125 8.410625 3.51953125 6.430625 3.51953125 4.390625 C2.19953125 4.390625 0.87953125 4.390625 -0.48046875 4.390625 Z " fill="#FDFDFD" transform="translate(567.48046875,196.609375)"/>
<path d="M0 0 C3.5625 0.5625 3.5625 0.5625 6.0625 2.6875 C7.5625 5.5625 7.5625 5.5625 7.5625 8.6875 C6.41084332 11.99851296 5.6776646 13.0049177 2.5625 14.5625 C0.0625 15 0.0625 15 -2.4375 14.5625 C-4.75 12.9375 -4.75 12.9375 -6.4375 10.5625 C-6.92496608 7.21987548 -6.75315201 5.26807508 -5.375 2.1875 C-3.4375 0.5625 -3.4375 0.5625 0 0 Z M-2.4375 4.5625 C-2.4375 6.2125 -2.4375 7.8625 -2.4375 9.5625 C-1.1175 9.8925 0.2025 10.2225 1.5625 10.5625 C2.2225 9.5725 2.8825 8.5825 3.5625 7.5625 C2.9025 6.5725 2.2425 5.5825 1.5625 4.5625 C0.2425 4.5625 -1.0775 4.5625 -2.4375 4.5625 Z " fill="#FDFDFD" transform="translate(255.4375,196.4375)"/>
<path d="M0 0 C1.134375 0.020625 2.26875 0.04125 3.4375 0.0625 C4.0975 1.3825 4.7575 2.7025 5.4375 4.0625 C4.7775 4.7225 4.1175 5.3825 3.4375 6.0625 C4.0975 6.7225 4.7575 7.3825 5.4375 8.0625 C5.0625 10.6875 5.0625 10.6875 4.4375 13.0625 C-2.1875 14.3125 -2.1875 14.3125 -5.5625 12.0625 C-5.5625 11.0725 -5.5625 10.0825 -5.5625 9.0625 C-4.9025 8.7325 -4.2425 8.4025 -3.5625 8.0625 C-4.2225 7.4025 -4.8825 6.7425 -5.5625 6.0625 C-4.83351201 0.08479846 -4.83351201 0.08479846 0 0 Z " fill="#FDFDFD" transform="translate(312.5625,196.9375)"/>
<path d="M0 0 C1.23556641 0.01740234 1.23556641 0.01740234 2.49609375 0.03515625 C3.32238281 0.04417969 4.14867187 0.05320313 5 0.0625 C5.63808594 0.07410156 6.27617188 0.08570313 6.93359375 0.09765625 C9.33506879 4.33108656 9.16614519 7.29159309 8.93359375 12.09765625 C8.60359375 12.75765625 8.27359375 13.41765625 7.93359375 14.09765625 C6.94359375 13.76765625 5.95359375 13.43765625 4.93359375 13.09765625 C4.93359375 10.12765625 4.93359375 7.15765625 4.93359375 4.09765625 C3.61359375 4.09765625 2.29359375 4.09765625 0.93359375 4.09765625 C0.93359375 7.06765625 0.93359375 10.03765625 0.93359375 13.09765625 C-0.38640625 13.09765625 -1.70640625 13.09765625 -3.06640625 13.09765625 C-3.09327178 11.11856227 -3.11274 9.13936654 -3.12890625 7.16015625 C-3.14050781 6.05800781 -3.15210938 4.95585937 -3.1640625 3.8203125 C-3.03217531 0.14329751 -3.03217531 0.14329751 0 0 Z " fill="#FDFDFD" transform="translate(775.06640625,196.90234375)"/>
<path d="M0 0 C0.94875 0.04125 1.8975 0.0825 2.875 0.125 C3.535 1.445 4.195 2.765 4.875 4.125 C3.555 4.455 2.235 4.785 0.875 5.125 C2.195 5.785 3.515 6.445 4.875 7.125 C5.0625 9.5 5.0625 9.5 4.875 12.125 C1.0246895 14.69187367 -0.71069763 13.95788724 -5.125 13.125 C-5.455 11.805 -5.785 10.485 -6.125 9.125 C-4.475 9.125 -2.825 9.125 -1.125 9.125 C-2.445 8.465 -3.765 7.805 -5.125 7.125 C-5.25 4.75 -5.25 4.75 -5.125 2.125 C-3.125 0.125 -3.125 0.125 0 0 Z " fill="#FDFDFD" transform="translate(835.125,196.875)"/>
<path d="M0 0 C0.99 0.33 1.98 0.66 3 1 C3 3.97 3 6.94 3 10 C3.99 9.67 4.98 9.34 6 9 C6.33 6.03 6.66 3.06 7 0 C8.32 0.33 9.64 0.66 11 1 C11.61989796 9.05867347 11.61989796 9.05867347 9.3125 12.5625 C6.54815528 14.28087645 5.19625513 14.57368682 2 14 C0.36328125 12.79296875 0.36328125 12.79296875 -1 11 C-1.328125 8.5546875 -1.328125 8.5546875 -1.25 5.875 C-1.23453125 4.98554688 -1.2190625 4.09609375 -1.203125 3.1796875 C-1 1 -1 1 0 0 Z " fill="#FDFDFD" transform="translate(280,197)"/>
<path d="M0 0 C0.99 0 1.98 0 3 0 C3 3.3 3 6.6 3 10 C4.32 10 5.64 10 7 10 C7 6.7 7 3.4 7 0 C8.32 0.33 9.64 0.66 11 1 C11.61578947 9.00526316 11.61578947 9.00526316 9.375 12.625 C7 14 7 14 3.875 13.9375 C1 13 1 13 -1 10 C-1.23046875 7.7734375 -1.23046875 7.7734375 -1.1875 5.375 C-1.17783203 4.18003906 -1.17783203 4.18003906 -1.16796875 2.9609375 C-1 1 -1 1 0 0 Z " fill="#FDFDFD" transform="translate(646,197)"/>
<path d="M0 0 C4.29 0 8.58 0 13 0 C12.67 1.32 12.34 2.64 12 4 C10.68 4 9.36 4 8 4 C8 8.29 8 12.58 8 17 C6.68 17 5.36 17 4 17 C4 12.71 4 8.42 4 4 C2.35 3.67 0.7 3.34 -1 3 C-0.67 2.01 -0.34 1.02 0 0 Z " fill="#FEFEFE" transform="translate(356,193)"/>
<path d="M0 0 C1.11375 0.185625 1.11375 0.185625 2.25 0.375 C2.25 3.64775026 1.95074844 6.221632 1.25 9.375 C0.59 9.375 -0.07 9.375 -0.75 9.375 C-0.75 12.345 -0.75 15.315 -0.75 18.375 C-1.74 18.375 -2.73 18.375 -3.75 18.375 C-5.68171878 16.44328122 -5.39745192 12.97504211 -5.75 10.375 C-6.018125 9.694375 -6.28625 9.01375 -6.5625 8.3125 C-6.75 6.375 -6.75 6.375 -5.125 3.125 C-2.75 0.375 -2.75 0.375 0 0 Z " fill="#FDFDFD" transform="translate(626.75,191.625)"/>
<path d="M0 0 C0.33 1.32 0.66 2.64 1 4 C-1.46278801 5.231394 -3.2795055 5.07159196 -6 5 C-6 6.32 -6 7.64 -6 9 C-3.69 9.33 -1.38 9.66 1 10 C0.34 11.32 -0.32 12.64 -1 14 C-3.75 14.3125 -3.75 14.3125 -7 14 C-9.4375 11.9375 -9.4375 11.9375 -11 9 C-10.9375 5.3125 -10.9375 5.3125 -10 2 C-6.3558226 -0.4294516 -4.28758728 -0.16179575 0 0 Z " fill="#FDFDFD" transform="translate(424,197)"/>
<path d="M0 0 C0.99 0 1.98 0 3 0 C4.5171529 3.03430581 4.22513316 6.17405965 4.25 9.5 C4.2809375 10.53447266 4.2809375 10.53447266 4.3125 11.58984375 C4.328125 13.59375 4.328125 13.59375 4 17 C3.01 17.66 2.02 18.32 1 19 C-0.81304156 15.12310085 -1.24579233 12.07843864 -1.1875 7.8125 C-1.18105469 6.76707031 -1.17460938 5.72164062 -1.16796875 4.64453125 C-1 2 -1 2 0 0 Z " fill="#FEFEFE" transform="translate(542,192)"/>
<path d="M0 0 C1.134375 0.020625 2.26875 0.04125 3.4375 0.0625 C3.4375 1.3825 3.4375 2.7025 3.4375 4.0625 C2.4475 4.3925 1.4575 4.7225 0.4375 5.0625 C0.1075 7.7025 -0.2225 10.3425 -0.5625 13.0625 C-1.8825 13.0625 -3.2025 13.0625 -4.5625 13.0625 C-4.58936553 11.08340602 -4.60883375 9.10421029 -4.625 7.125 C-4.63660156 6.02285156 -4.64820313 4.92070312 -4.66015625 3.78515625 C-4.51237367 -0.33502211 -4.25789233 0.07469987 0 0 Z " fill="#FEFEFE" transform="translate(208.5625,196.9375)"/>
<path d="M0 0 C1.32 0.33 2.64 0.66 4 1 C4 6.61 4 12.22 4 18 C3.34 18.33 2.68 18.66 2 19 C1.34 18.67 0.68 18.34 0 18 C0 12.06 0 6.12 0 0 Z " fill="#FEFEFE" transform="translate(674,192)"/>
<path d="M0 0 C1.32 0.33 2.64 0.66 4 1 C4 6.28 4 11.56 4 17 C2.68 17 1.36 17 0 17 C0 11.39 0 5.78 0 0 Z " fill="#FEFEFE" transform="translate(229,193)"/>
<path d="M0 0 C1.32 0.33 2.64 0.66 4 1 C4 6.28 4 11.56 4 17 C2.68 17 1.36 17 0 17 C0 11.39 0 5.78 0 0 Z " fill="#FEFEFE" transform="translate(751,193)"/>
<path d="M0 0 C1.32 0.66 2.64 1.32 4 2 C3.6875 3.9375 3.6875 3.9375 3 6 C2.01 6.33 1.02 6.66 0 7 C-0.66 5.35 -1.32 3.7 -2 2 C-1.34 1.34 -0.68 0.68 0 0 Z " fill="#FEFEFE" transform="translate(470,207)"/>
</svg>
