<?xml version="1.0" encoding="UTF-8"?>
<svg version="1.1" xmlns="http://www.w3.org/2000/svg" width="928" height="212">
<path d="M0 0 C8.91 0 17.82 0 27 0 C27.33 19.8 27.66 39.6 28 60 C30.475 58.02 30.475 58.02 33 56 C35.09765625 54.76953125 35.09765625 54.76953125 37.0625 53.8125 C38.03896484 53.32716797 38.03896484 53.32716797 39.03515625 52.83203125 C48.94278749 48.63655321 59.38330441 51.21318212 69 55 C75.08847306 58.01421448 79.9124949 62.97936506 83 69 C84.06311459 72.32408316 84.12095749 75.39189346 84.11352539 78.87011719 C84.11344986 80.05103943 84.11337433 81.23196167 84.11329651 82.44866943 C84.10813522 83.71857727 84.10297394 84.98848511 84.09765625 86.296875 C84.09553383 88.25273529 84.09553383 88.25273529 84.09336853 90.24810791 C84.08955867 93.70703055 84.07974151 97.16591091 84.06866455 100.62481689 C84.05841746 104.15742409 84.05380899 107.69003835 84.04882812 111.22265625 C84.03864909 118.14847479 84.01907356 125.07417735 84 132 C74.76 132 65.52 132 56 132 C55.94392578 126.78123047 55.94392578 126.78123047 55.88671875 121.45703125 C55.84049723 118.08449036 55.78926572 114.71206018 55.73754883 111.33959961 C55.70431094 108.99722022 55.6762755 106.65476096 55.65356445 104.31225586 C55.61999832 100.94350167 55.56767981 97.57547869 55.51171875 94.20703125 C55.50213387 92.63801811 55.50213387 92.63801811 55.49235535 91.03730774 C55.38401106 84.02654041 55.38401106 84.02654041 52 78 C51.53207031 77.41992188 51.06414062 76.83984375 50.58203125 76.2421875 C47.51601502 73.83479698 43.77925423 73.90276361 40 74 C34.72516336 75.72446583 32.13979041 78.60429343 29 83 C28.0558969 85.88253123 27.85409484 88.56317647 27.79467773 91.58496094 C27.77473251 92.48559265 27.75478729 93.38622437 27.73423767 94.31414795 C27.71752518 95.27782288 27.70081268 96.2414978 27.68359375 97.234375 C27.6524221 98.72411835 27.6524221 98.72411835 27.62062073 100.24395752 C27.55530251 103.41256882 27.49632261 106.58126211 27.4375 109.75 C27.39429793 111.89974802 27.35068309 114.04948778 27.30664062 116.19921875 C27.19963929 121.46605949 27.09784009 126.73298155 27 132 C26.1342334 131.98428955 25.2684668 131.9685791 24.37646484 131.95239258 C21.0923842 131.90055249 17.80875258 131.86331158 14.52441406 131.83520508 C13.11646565 131.82033238 11.7085617 131.80002781 10.30078125 131.77368164 C1.44628126 131.61240325 -6.48240034 132.18422843 -15.12255859 134.3137207 C-25.07043889 136.68632307 -36.61071196 134.30840081 -45.375 129.25 C-50.91610399 125.58336188 -56.29229362 121.56155957 -60 116 C-60.46148437 116.58007812 -60.92296875 117.16015625 -61.3984375 117.7578125 C-69.65447969 127.64548359 -80.05686585 133.67901509 -92.9921875 134.87109375 C-93.98605469 134.93490234 -93.98605469 134.93490234 -95 135 C-95.99386719 135.07927734 -95.99386719 135.07927734 -97.0078125 135.16015625 C-110.69724027 135.74107293 -122.89138994 131.13035747 -133 122 C-133.33 121.34 -133.66 120.68 -134 120 C-133.505 124.95 -133.505 124.95 -133 130 C-143.74145209 135.0452275 -153.50984256 136.62302262 -165 133 C-170.70328611 130.72554321 -174.1670483 127.32756837 -177 122 C-180.91109373 112.40074159 -180.34663593 102.46617325 -180.1875 92.3125 C-180.17242022 90.62826723 -180.15873767 88.94402133 -180.14648438 87.25976562 C-180.11375247 83.17284759 -180.0621544 79.08657211 -180 75 C-183.63 75 -187.26 75 -191 75 C-191 67.74 -191 60.48 -191 53 C-187.37 53 -183.74 53 -180 53 C-180 43.43 -180 33.86 -180 24 C-170.76 24 -161.52 24 -152 24 C-152 33.57 -152 43.14 -152 53 C-146.72 53 -141.44 53 -136 53 C-135.505 59.93 -135.505 59.93 -135 67 C-133.68 65.35 -132.36 63.7 -131 62 C-120.16629534 53.04217027 -107.8040168 50.07973221 -94 51 C-80.83468476 53.08738456 -72.06352763 58.43399828 -64 69 C-63.01 70.485 -63.01 70.485 -62 72 C-61.45472656 71.34773438 -60.90945312 70.69546875 -60.34765625 70.0234375 C-51.52018677 59.79262671 -41.65351781 52.81700807 -28 51 C-18.87575783 50.38381741 -9.33321288 50.83339356 -1 55 C-1.00222061 54.3257045 -1.00444122 53.651409 -1.00672913 52.9566803 C-1.02877929 45.96567309 -1.04390547 38.97467569 -1.05493164 31.98364258 C-1.05997377 29.37133381 -1.06680725 26.75902789 -1.07543945 24.14672852 C-1.08751036 20.40119732 -1.09322935 16.65570328 -1.09765625 12.91015625 C-1.10281754 11.73413345 -1.10797882 10.55811066 -1.11329651 9.34645081 C-1.11337204 8.26540573 -1.11344757 7.18436066 -1.11352539 6.07055664 C-1.115746 5.11347305 -1.11796661 4.15638947 -1.12025452 3.17030334 C-1 1 -1 1 0 0 Z M-112 74 C-113.78229676 76.67344514 -114 77.73770359 -114 81 C-104.76 81 -95.52 81 -86 81 C-87.83936272 75.03401989 -87.83936272 75.03401989 -91.9609375 70.91796875 C-98.74615088 67.86332288 -106.67974412 68.95975759 -112 74 Z M-2 70 C-4.2013866 73.80427492 -4.2013866 73.80427492 -5 78 C-5.9075 77.525625 -6.815 77.05125 -7.75 76.5625 C-13.78120855 73.6628805 -18.94240671 73.12640192 -25.5 75 C-30.00586509 77.13060136 -33.23462506 80.93005552 -36 85 C-37.84327725 90.50852218 -37.773165 95.92347808 -35.375 101.1875 C-32.63531499 106.09771011 -29.27117362 108.88964845 -24.1875 111.375 C-17.18549025 112.74794309 -11.29340203 111.07974993 -5 108 C-4.71125 108.94875 -4.4225 109.8975 -4.125 110.875 C-3.23174891 114.05211578 -3.23174891 114.05211578 -1 116 C-1 100.82 -1 85.64 -1 70 C-1.33 70 -1.66 70 -2 70 Z M-152 75 C-152.0744389 79.0384057 -152.12873729 83.07654293 -152.16479492 87.11547852 C-152.17983432 88.48794517 -152.20027133 89.86036414 -152.22631836 91.23266602 C-152.26291221 93.21088656 -152.27816698 95.18946514 -152.29296875 97.16796875 C-152.3086792 98.35672607 -152.32438965 99.5454834 -152.34057617 100.77026367 C-151.96516852 104.33031232 -151.23462283 106.21816234 -149 109 C-145.87364791 109.41746608 -145.87364791 109.41746608 -143 109 C-142.0965383 106.19763783 -142.0965383 106.19763783 -142.45703125 103.3359375 C-144.62649537 94.00255949 -143.31085308 83.82894156 -140 75 C-143.96 75 -147.92 75 -152 75 Z M-115 97 C-114.16578396 104.13948571 -114.16578396 104.13948571 -110 109 C-104.5663534 112.93939378 -98.44456036 112.77706364 -92 112 C-88.29418961 110.79428179 -85.10614137 109.34031057 -82.59765625 106.30078125 C-81 105 -81 105 -78.69921875 105.1171875 C-74.41772941 106.51750095 -70.60578045 108.70048247 -66.64453125 110.8203125 C-65.77183594 111.20960938 -64.89914063 111.59890625 -64 112 C-63.34 111.67 -62.68 111.34 -62 111 C-62.71614583 109.11197917 -63.43229167 107.22395833 -64.1484375 105.3359375 C-65.15426583 102.57683042 -66.07132554 99.78602338 -67 97 C-82.84 97 -98.68 97 -115 97 Z " fill="#000000" transform="translate(251,21)"/>
<path d="M0 0 C1.63851749 1.15814891 3.20793957 2.41316003 4.7578125 3.6875 C5.0878125 1.7075 5.4178125 -0.2725 5.7578125 -2.3125 C14.9978125 -2.3125 24.2378125 -2.3125 33.7578125 -2.3125 C34.0878125 18.4775 34.4178125 39.2675 34.7578125 60.6875 C37.0678125 57.0575 39.3778125 53.4275 41.7578125 49.6875 C45.25674038 51.08707115 48.29509141 52.47746516 51.5703125 54.25 C56.13708237 56.55039973 59.63954823 57.59925406 64.7578125 57.6875 C67.1815384 56.89964647 67.1815384 56.89964647 68.7578125 55.6875 C68.88596615 53.3022267 68.88596615 53.3022267 67.7578125 50.6875 C65.09680185 49.12219962 62.57741562 47.91431847 59.7578125 46.6875 C41.56133178 38.34221746 41.56133178 38.34221746 37.609375 30.37109375 C35.61243129 24.07797298 35.58733856 16.32588199 38.3203125 10.25 C43.2418983 2.10451827 51.10689985 -1.65253844 60.10546875 -3.8984375 C71.92779245 -5.74404326 85.89263736 -4.74508757 96.7578125 0.6875 C97.0878125 -0.3025 97.4178125 -1.2925 97.7578125 -2.3125 C106.9978125 -2.3125 116.2378125 -2.3125 125.7578125 -2.3125 C126.0878125 -0.3325 126.4178125 1.6475 126.7578125 3.6875 C127.32628906 3.27757813 127.89476562 2.86765625 128.48046875 2.4453125 C136.70571641 -3.29450974 143.74240172 -5.20673311 153.7578125 -4.3125 C162.96189948 -2.50077598 169.05091914 1.3021086 174.7578125 8.6875 C175.3146875 8.15640625 175.8715625 7.6253125 176.4453125 7.078125 C185.24833295 -1.0706169 192.47811278 -4.73270036 204.52734375 -4.5859375 C213.44517311 -3.83110309 220.92921476 -0.11711293 226.7578125 6.6875 C230.45452903 12.43675391 231.88615468 17.65009537 231.87133789 24.46582031 C231.87126236 25.6267218 231.87118683 26.78762329 231.87110901 27.98370361 C231.86594772 29.23173767 231.86078644 30.47977173 231.85546875 31.765625 C231.85334633 33.68819122 231.85334633 33.68819122 231.85118103 35.64959717 C231.84737151 39.0493364 231.83755464 42.4490326 231.82647705 45.84875488 C231.81622924 49.32103889 231.81162133 52.7933301 231.80664062 56.265625 C231.7964622 63.07295462 231.7768866 69.88016621 231.7578125 76.6875 C222.5178125 76.6875 213.2778125 76.6875 203.7578125 76.6875 C203.72042969 73.29210937 203.68304687 69.89671875 203.64453125 66.3984375 C203.59829101 63.10198607 203.54706631 59.80564705 203.49536133 56.50927734 C203.46215244 54.22223774 203.43410799 51.93511697 203.41137695 49.64794922 C203.3777574 46.35609422 203.32543626 43.06498028 203.26953125 39.7734375 C203.25994637 38.24497696 203.25994637 38.24497696 203.25016785 36.68563843 C203.12018169 30.37785425 202.60665306 25.48303585 197.87890625 20.84375 C194.00684933 18.73301547 190.02569698 18.93475015 185.7578125 19.6875 C182.41156226 22.21426039 181.07803403 23.72683542 179.7578125 27.6875 C179.64310238 29.29774513 179.5815351 30.91205855 179.55249023 32.52612305 C179.53254501 33.5069133 179.51259979 34.48770355 179.49205017 35.49821472 C179.47533768 36.55454605 179.45862518 37.61087738 179.44140625 38.69921875 C179.4102346 40.32426079 179.4102346 40.32426079 179.37843323 41.98213196 C179.31299453 45.44635616 179.25407897 48.9106568 179.1953125 52.375 C179.15212189 54.72201315 179.10850743 57.06901853 179.06445312 59.41601562 C178.95652052 65.17309984 178.85740439 70.93024123 178.7578125 76.6875 C169.5178125 76.6875 160.2778125 76.6875 150.7578125 76.6875 C150.72042969 73.37589844 150.68304687 70.06429687 150.64453125 66.65234375 C150.59827139 63.43198175 150.54705385 60.21173392 150.49536133 56.99145508 C150.46218282 54.75975529 150.43412902 52.52797302 150.41137695 50.29614258 C150.37770124 47.08118666 150.32537765 43.8669818 150.26953125 40.65234375 C150.25994637 39.16443581 150.25994637 39.16443581 150.25016785 37.64646912 C150.1142949 31.19096581 149.63143272 25.60294006 144.87890625 20.78125 C140.97795663 18.7697106 137.01381571 18.92995898 132.7578125 19.6875 C129.93356962 21.87772918 128.34272647 23.51767207 126.7578125 26.6875 C126.63924614 28.2902098 126.58075126 29.89755353 126.55249023 31.50439453 C126.53254501 32.50528107 126.51259979 33.5061676 126.49205017 34.53738403 C126.47533768 35.62075043 126.45862518 36.70411682 126.44140625 37.8203125 C126.4102346 39.48077103 126.4102346 39.48077103 126.37843323 41.17477417 C126.31290259 44.72061799 126.25403636 48.26653754 126.1953125 51.8125 C126.15213063 54.2122475 126.10851645 56.61198727 126.06445312 59.01171875 C125.95640189 64.90356925 125.85735426 70.79547492 125.7578125 76.6875 C116.5178125 76.6875 107.2778125 76.6875 97.7578125 76.6875 C97.4278125 73.0575 97.0978125 69.4275 96.7578125 65.6875 C95.9328125 66.76 95.1078125 67.8325 94.2578125 68.9375 C87.62705814 76.66037861 77.60093409 78.9344743 67.7578125 79.6875 C56.27958499 80.52883605 44.94857615 77.99855936 34.7578125 72.6875 C34.2628125 74.6675 34.2628125 74.6675 33.7578125 76.6875 C24.5178125 76.6875 15.2778125 76.6875 5.7578125 76.6875 C5.4278125 74.7075 5.0978125 72.7275 4.7578125 70.6875 C3.79875 71.55375 3.79875 71.55375 2.8203125 72.4375 C-6.47972927 79.27018375 -16.64141013 80.71583452 -27.9921875 79.0625 C-37.50844687 76.99856602 -45.71902102 71.4783842 -51.3671875 63.5625 C-58.88525822 51.43466487 -60.38652942 38.22850664 -57.546875 24.26953125 C-56.64198983 21.57388592 -55.59319191 19.18685815 -54.2421875 16.6875 C-53.8296875 15.90375 -53.4171875 15.12 -52.9921875 14.3125 C-47.33229261 4.79358587 -39.16854111 -0.88432563 -28.5390625 -3.69140625 C-18.95690822 -5.49657512 -8.59428164 -5.03079901 0 0 Z M96.7578125 3.6875 C94.1178125 8.9675 91.4778125 14.2475 88.7578125 19.6875 C86.9840625 19.0275 85.2103125 18.3675 83.3828125 17.6875 C77.80978832 15.82762684 72.62021327 14.73082739 66.7578125 15.6875 C65.7678125 16.3475 64.7778125 17.0075 63.7578125 17.6875 C63.62965885 20.0727733 63.62965885 20.0727733 64.7578125 22.6875 C69.07706679 25.32704429 73.4209864 26.9307683 78.1953125 28.5625 C86.29117806 31.44102998 92.45362646 35.15517443 96.7578125 42.6875 C97.0878125 42.6875 97.4178125 42.6875 97.7578125 42.6875 C97.7578125 29.8175 97.7578125 16.9475 97.7578125 3.6875 C97.4278125 3.6875 97.0978125 3.6875 96.7578125 3.6875 Z M-25.6171875 26.125 C-28.82492816 31.18336027 -30.1412835 35.66022681 -29.2421875 41.6875 C-27.47595934 46.94799576 -25.03279907 50.72188331 -20.2421875 53.6875 C-14.92042584 56.28649988 -9.9018673 55.94110986 -4.2421875 54.6875 C0.97048823 52.17769317 3.60858289 48.92763198 5.7578125 43.6875 C7.41114033 37.73551981 6.40909923 33.13338626 3.7578125 27.6875 C-0.35795137 22.57060437 -4.57445285 19.98869585 -11.1171875 19.25 C-16.98590472 19.49734057 -21.56757638 21.96882017 -25.6171875 26.125 Z " fill="#000000" transform="translate(623.2421875,76.3125)"/>
<path d="M0 0 C6.19774023 4.35359153 9.90844114 9.61984701 12.57421875 16.64453125 C13.15816406 15.79181641 13.15816406 15.79181641 13.75390625 14.921875 C21.19579515 4.65069655 31.39377941 -1.99705529 43.82421875 -4.60546875 C60.33773776 -7.15839439 74.43081062 -4.319652 88.37890625 4.828125 C92.88983838 8.20548092 95.66919823 12.91614679 98.57421875 17.64453125 C99.19296875 16.79181641 99.19296875 16.79181641 99.82421875 15.921875 C107.61669973 5.50291047 116.85672933 -2.65629521 130.0390625 -5.07421875 C140.76656211 -6.26432657 152.97532582 -6.30591014 162.32421875 -0.16796875 C163.06671875 0.43015625 163.80921875 1.02828125 164.57421875 1.64453125 C163.97862769 6.51325179 161.8494446 10.23781966 159.51171875 14.45703125 C158.94614258 15.49633789 158.94614258 15.49633789 158.36914062 16.55664062 C157.44338023 18.2558211 156.50959563 19.9506255 155.57421875 21.64453125 C155.01734375 21.42796875 154.46046875 21.21140625 153.88671875 20.98828125 C147.38437556 18.61580468 142.11068902 17.32702272 135.38671875 19.83203125 C130.65861855 22.87902916 126.93989842 26.05765986 125.57421875 31.64453125 C125.01062297 37.64280059 125.01825568 42.54765086 128.57421875 47.64453125 C132.28778393 51.27557276 135.44686118 53.63916702 140.57421875 54.64453125 C145.85616479 54.54936105 150.63499268 53.54423358 155.57421875 51.64453125 C157.79014729 55.26877582 159.8617494 58.93928063 161.82421875 62.70703125 C162.63632812 64.24037109 162.63632812 64.24037109 163.46484375 65.8046875 C164.57421875 68.64453125 164.57421875 68.64453125 164.484375 70.8828125 C162.58247243 74.56417756 158.31117186 75.43802924 154.57421875 76.64453125 C139.32781806 80.19670314 126.04416114 79.01007442 112.57421875 70.64453125 C107.24041933 66.48299544 102.71122917 61.99443791 98.57421875 56.64453125 C98.12433594 57.28519531 97.67445313 57.92585938 97.2109375 58.5859375 C88.53678929 70.24997247 77.25532061 76.2540818 63.0390625 78.3515625 C49.12630965 79.52795085 35.09000057 77.7912098 23.57421875 69.26953125 C19.80139588 66.06086881 16.65476324 62.51495894 13.57421875 58.64453125 C13.24421875 64.25453125 12.91421875 69.86453125 12.57421875 75.64453125 C3.33421875 75.64453125 -5.90578125 75.64453125 -15.42578125 75.64453125 C-15.4515625 72.34453125 -15.47734375 69.04453125 -15.50390625 65.64453125 C-15.5423738 62.43074191 -15.587519 59.21711046 -15.63330078 56.00341797 C-15.66143897 53.77856039 -15.6826889 51.55360418 -15.69677734 49.32861328 C-15.71830557 46.12090822 -15.76500803 42.91438022 -15.81640625 39.70703125 C-15.81763489 38.72025391 -15.81886353 37.73347656 -15.82012939 36.71679688 C-15.94920263 30.56136162 -16.8697463 25.77197774 -20.42578125 20.64453125 C-23.31131896 18.14893106 -25.01681983 17.69754477 -28.80078125 17.20703125 C-34.43388589 17.88688871 -37.79808676 19.75552112 -41.49243164 24.04296875 C-44.4340986 28.56667849 -44.0288479 33.49862628 -44.03515625 38.73046875 C-44.0516925 39.78738922 -44.06822876 40.84430969 -44.08526611 41.93325806 C-44.13369157 45.29540857 -44.15510568 48.6571069 -44.17578125 52.01953125 C-44.20394538 54.30471018 -44.23387342 56.5898681 -44.265625 58.875 C-44.34275714 64.46505068 -44.38332984 70.05368007 -44.42578125 75.64453125 C-53.66578125 75.64453125 -62.90578125 75.64453125 -72.42578125 75.64453125 C-72.42578125 49.57453125 -72.42578125 23.50453125 -72.42578125 -3.35546875 C-63.18578125 -3.35546875 -53.94578125 -3.35546875 -44.42578125 -3.35546875 C-44.42578125 -1.04546875 -44.42578125 1.26453125 -44.42578125 3.64453125 C-43.88050781 3.24621094 -43.33523438 2.84789063 -42.7734375 2.4375 C-29.27457205 -7.04631829 -14.79437251 -8.26674277 0 0 Z M41.19921875 25.08203125 C37.99147809 30.14039152 36.67512275 34.61725806 37.57421875 40.64453125 C39.34044691 45.90502701 41.78360718 49.67891456 46.57421875 52.64453125 C51.89598041 55.24353113 56.91453895 54.89814111 62.57421875 53.64453125 C67.78689448 51.13472442 70.42498914 47.88466323 72.57421875 42.64453125 C74.22754658 36.69255106 73.22550548 32.09041751 70.57421875 26.64453125 C66.45845488 21.52763562 62.2419534 18.9457271 55.69921875 18.20703125 C49.83050153 18.45437182 45.24882987 20.92585142 41.19921875 25.08203125 Z " fill="#000000" transform="translate(409.42578125,77.35546875)"/>
<path d="M0 0 C0.99 0 1.98 0 3 0 C5.1875 3 5.1875 3 7 6 C7.763125 5.195625 8.52625 4.39125 9.3125 3.5625 C12 1 12 1 15 0 C15 5.28 15 10.56 15 16 C14.01 16 13.02 16 12 16 C11.67 13.69 11.34 11.38 11 9 C10.01 10.485 10.01 10.485 9 12 C7.0625 11.625 7.0625 11.625 5 11 C4.67 10.34 4.34 9.68 4 9 C3.67 11.31 3.34 13.62 3 16 C2.01 16 1.02 16 0 16 C0 10.72 0 5.44 0 0 Z " fill="#010101" transform="translate(671,169)"/>
<path d="M0 0 C0.99 0 1.98 0 3 0 C3.33 2.64 3.66 5.28 4 8 C4.99 8 5.98 8 7 8 C7.33 5.36 7.66 2.72 8 0 C8.99 0 9.98 0 11 0 C11.08126087 2.08268593 11.13930839 4.16628658 11.1875 6.25 C11.22230469 7.41015625 11.25710938 8.5703125 11.29296875 9.765625 C10.9776284 13.24698247 10.5217837 14.61831539 8 17 C4.8125 17.25 4.8125 17.25 2 17 C-0.01167675 11.21642935 -0.22084624 6.09781001 0 0 Z " fill="#010101" transform="translate(552,173)"/>
<path d="M0 0 C0.99 0 1.98 0 3 0 C3 5.61 3 11.22 3 17 C-5.05660377 18.1509434 -5.05660377 18.1509434 -8 16 C-9.38550197 13.22899606 -9.1877467 11.0665294 -9 8 C-8.34 7.01 -7.68 6.02 -7 5 C-3.375 4.8125 -3.375 4.8125 0 5 C0 3.35 0 1.7 0 0 Z M-5 8 C-5.33 9.65 -5.66 11.3 -6 13 C-4.02 13.99 -4.02 13.99 -2 15 C-1.34 14.34 -0.68 13.68 0 13 C-0.32041397 10.39719432 -0.32041397 10.39719432 -1 8 C-2.32 8 -3.64 8 -5 8 Z " fill="#010101" transform="translate(759,168)"/>
<path d="M0 0 C3.5625 0.125 3.5625 0.125 5.5625 1.125 C5.5625 2.115 5.5625 3.105 5.5625 4.125 C3.2525 4.125 0.9425 4.125 -1.4375 4.125 C0.48983965 6.24483418 0.48983965 6.24483418 3.125 7.5 C5.5625 9.125 5.5625 9.125 6.5 11.125 C6.5625 13.125 6.5625 13.125 4.5625 16.125 C1.30462952 17.04570253 -0.63046594 17.44356608 -3.8125 16.1875 C-4.34875 15.836875 -4.885 15.48625 -5.4375 15.125 C-5.4375 14.135 -5.4375 13.145 -5.4375 12.125 C-2.7975 12.455 -0.1575 12.785 2.5625 13.125 C2.5625 12.135 2.5625 11.145 2.5625 10.125 C1.61375 10.00125 0.665 9.8775 -0.3125 9.75 C-3.4375 9.125 -3.4375 9.125 -5.4375 7.125 C-4.72800279 0.17192737 -4.72800279 0.17192737 0 0 Z " fill="#010101" transform="translate(133.4375,168.875)"/>
<path d="M0 0 C4.17567568 0.17567568 4.17567568 0.17567568 5.375 1.375 C5.44705511 3.06108966 5.45886068 4.75000659 5.4375 6.4375 C5.42847656 7.35660156 5.41945313 8.27570313 5.41015625 9.22265625 C5.39855469 9.93292969 5.38695312 10.64320313 5.375 11.375 C2.16494678 12.71874321 0.09063445 13.50511535 -3.375 12.875 C-5.625 11.375 -5.625 11.375 -7.125 8.5625 C-7.625 5.375 -7.625 5.375 -6.8125 2.5 C-4.22915261 -0.00953747 -3.48279687 0.0444376 0 0 Z M-2.625 3.375 C-3.92133621 4.44145115 -3.92133621 4.44145115 -3.6875 6.9375 C-3.666875 7.741875 -3.64625 8.54625 -3.625 9.375 C-2.635 9.705 -1.645 10.035 -0.625 10.375 C0.035 10.045 0.695 9.715 1.375 9.375 C1.375 7.725 1.375 6.075 1.375 4.375 C-0.57103274 3.78429986 -0.57103274 3.78429986 -2.625 3.375 Z " fill="#010101" transform="translate(530.625,172.625)"/>
<path d="M0 0 C2.59587154 0.04660452 3.88303153 0.1180172 6.1875 1.375 C7.65463327 4.30926655 7.10060044 6.19311864 6.125 9.25 C3.26588761 11.41898181 1.84056422 11.25 -1.875 11.25 C-1.875 12.9 -1.875 14.55 -1.875 16.25 C-2.865 16.25 -3.855 16.25 -4.875 16.25 C-4.90185095 13.77076199 -4.92176547 11.2918116 -4.9375 8.8125 C-4.95006836 7.75192383 -4.95006836 7.75192383 -4.96289062 6.66992188 C-4.97153588 4.86306441 -4.92720011 3.05612397 -4.875 1.25 C-3.875 0.25 -3.875 0.25 0 0 Z M-1.875 3.25 C-1.875 4.9 -1.875 6.55 -1.875 8.25 C0.59766765 7.90555119 0.59766765 7.90555119 3.125 7.25 C3.455 6.59 3.785 5.93 4.125 5.25 C3.795 4.59 3.465 3.93 3.125 3.25 C1.475 3.25 -0.175 3.25 -1.875 3.25 Z " fill="#020202" transform="translate(480.875,168.75)"/>
<path d="M0 0 C3.5 -0.3125 3.5 -0.3125 7 0 C9 2 9 2 9.125 4.625 C9.08375 5.40875 9.0425 6.1925 9 7 C6.69 7.33 4.38 7.66 2 8 C5 9.33333333 5 9.33333333 8 8 C8 9.32 8 10.64 8 12 C4.86022274 12.98678714 3.32881171 13.11691083 0.1875 12 C-2 10 -2 10 -2.4375 6.5 C-2 3 -2 3 0 0 Z M2 3 C6 4 6 4 6 4 Z " fill="#020202" transform="translate(357,173)"/>
<path d="M0 0 C0.66 0 1.32 0 2 0 C2.33 1.65 2.66 3.3 3 5 C3.78375 4.95875 4.5675 4.9175 5.375 4.875 C8 5 8 5 10 7 C10.1953125 9.3828125 10.1953125 9.3828125 10.125 12.125 C10.10695313 13.03507813 10.08890625 13.94515625 10.0703125 14.8828125 C10.04710937 15.58148438 10.02390625 16.28015625 10 17 C9.01 17 8.02 17 7 17 C6.67 14.36 6.34 11.72 6 9 C5.01 8.67 4.02 8.34 3 8 C2.67 10.97 2.34 13.94 2 17 C1.01 17 0.02 17 -1 17 C-1.02684679 14.35409986 -1.04676357 11.70846904 -1.0625 9.0625 C-1.07087891 8.30775391 -1.07925781 7.55300781 -1.08789062 6.77539062 C-1.09652441 4.85005687 -1.05224333 2.92464419 -1 1 C-0.67 0.67 -0.34 0.34 0 0 Z " fill="#010101" transform="translate(409,168)"/>
<path d="M0 0 C3.0625 0.3125 3.0625 0.3125 4.9375 1.5625 C6.0625 3.3125 6.0625 3.3125 6.0625 7.3125 C3.4225 7.6425 0.7825 7.9725 -1.9375 8.3125 C0.55314888 8.99957555 2.44136292 9.3125 5.0625 9.3125 C4.7325 10.3025 4.4025 11.2925 4.0625 12.3125 C1.875 13.125 1.875 13.125 -0.9375 13.3125 C-3.8125 11.25 -3.8125 11.25 -5.9375 8.3125 C-5.8430445 3.49526969 -5.19394671 0.55254752 0 0 Z M-1.9375 3.3125 C2.0625 4.3125 2.0625 4.3125 2.0625 4.3125 Z " fill="#010101" transform="translate(160.9375,172.6875)"/>
<path d="M0 0 C3.5 0.5625 3.5 0.5625 5.5 2.125 C6.89537637 5.52622991 6.24768043 8.0280107 5.5 11.5625 C0.29445145 13.8626261 0.29445145 13.8626261 -3.3125 12.5 C-5.5 10.5625 -5.5 10.5625 -6.5 8.1875 C-6.5 3.10007947 -5.08490738 0.81721726 0 0 Z M-1.5 3.5625 C-1.83 5.2125 -2.16 6.8625 -2.5 8.5625 C-1.015 9.5525 -1.015 9.5525 0.5 10.5625 C1.49 9.9025 2.48 9.2425 3.5 8.5625 C3.17 6.9125 2.84 5.2625 2.5 3.5625 C1.18 3.5625 -0.14 3.5625 -1.5 3.5625 Z " fill="#010101" transform="translate(231.5,172.4375)"/>
<path d="M0 0 C0.94875 0.04125 1.8975 0.0825 2.875 0.125 C3.205 1.445 3.535 2.765 3.875 4.125 C2.555 4.125 1.235 4.125 -0.125 4.125 C0.514375 4.3725 1.15375 4.62 1.8125 4.875 C3.875 6.125 3.875 6.125 4.6875 8.125 C4.875 10.125 4.875 10.125 3.875 12.125 C0.94786212 13.07434202 -0.55331368 13.35676473 -3.4375 12.1875 C-3.994375 11.836875 -4.55125 11.48625 -5.125 11.125 C-5.125 10.135 -5.125 9.145 -5.125 8.125 C-3.145 8.785 -1.165 9.445 0.875 10.125 C0.875 9.465 0.875 8.805 0.875 8.125 C0.070625 7.8775 -0.73375 7.63 -1.5625 7.375 C-4.125 6.125 -4.125 6.125 -5.0625 4.125 C-5.083125 3.465 -5.10375 2.805 -5.125 2.125 C-3.125 0.125 -3.125 0.125 0 0 Z " fill="#020202" transform="translate(783.125,172.875)"/>
<path d="M0 0 C6.8359375 -0.29296875 6.8359375 -0.29296875 9 0 C11.13586678 3.20380017 11.23132175 4.01939967 11.125 7.6875 C11.10695313 8.49574219 11.08890625 9.30398437 11.0703125 10.13671875 C11.03550781 11.05904297 11.03550781 11.05904297 11 12 C10.01 12 9.02 12 8 12 C7.67 9.03 7.34 6.06 7 3 C6.01 3.33 5.02 3.66 4 4 C3.67 6.64 3.34 9.28 3 12 C2.01 12 1.02 12 0 12 C0 8.04 0 4.08 0 0 Z " fill="#020202" transform="translate(723,173)"/>
<path d="M0 0 C0.99 0 1.98 0 3 0 C3.33 2.64 3.66 5.28 4 8 C4.99 8 5.98 8 7 8 C7.33 5.36 7.66 2.72 8 0 C8.99 0 9.98 0 11 0 C11.10824843 1.6026782 11.18570645 3.20745748 11.25 4.8125 C11.29640625 5.70582031 11.3428125 6.59914062 11.390625 7.51953125 C11 10 11 10 9.1484375 11.8359375 C7 13 7 13 4.375 12.8125 C2 12 2 12 0 10 C-0.1953125 7.6171875 -0.1953125 7.6171875 -0.125 4.875 C-0.10695312 3.96492187 -0.08890625 3.05484375 -0.0703125 2.1171875 C-0.04710937 1.41851562 -0.02390625 0.71984375 0 0 Z " fill="#010101" transform="translate(254,173)"/>
<path d="M0 0 C0.99 0.33 1.98 0.66 3 1 C3 3.64 3 6.28 3 9 C4.32 9 5.64 9 7 9 C7 6.03 7 3.06 7 0 C7.99 0 8.98 0 10 0 C10 3.63 10 7.26 10 11 C5.83758971 13.08120514 5.17733811 13.24191133 1 12 C0 11 0 11 -0.09765625 8.49609375 C-0.08605469 7.48675781 -0.07445312 6.47742188 -0.0625 5.4375 C-0.05347656 4.42558594 -0.04445313 3.41367188 -0.03515625 2.37109375 C-0.02355469 1.58863281 -0.01195312 0.80617187 0 0 Z " fill="#010101" transform="translate(603,173)"/>
<path d="M0 0 C0.33 1.32 0.66 2.64 1 4 C-0.65 3.67 -2.3 3.34 -4 3 C-2.7625 3.5878125 -2.7625 3.5878125 -1.5 4.1875 C1 6 1 6 1.5 8.5625 C1 11 1 11 -2 13 C-4.6875 12.625 -4.6875 12.625 -7 12 C-7.33 10.68 -7.66 9.36 -8 8 C-6.02 8.66 -4.04 9.32 -2 10 C-2 9.34 -2 8.68 -2 8 C-2.804375 7.773125 -3.60875 7.54625 -4.4375 7.3125 C-5.283125 6.879375 -6.12875 6.44625 -7 6 C-7.8125 3.375 -7.8125 3.375 -8 1 C-5.29120665 -0.35439668 -2.99066732 -0.06501451 0 0 Z " fill="#010101" transform="translate(289,173)"/>
<path d="M0 0 C4.29 0 8.58 0 13 0 C13 0.99 13 1.98 13 3 C11.35 3 9.7 3 8 3 C8 7.29 8 11.58 8 16 C7.01 16 6.02 16 5 16 C5 11.71 5 7.42 5 3 C3.35 2.67 1.7 2.34 0 2 C0 1.34 0 0.68 0 0 Z " fill="#010101" transform="translate(326,169)"/>
<path d="M0 0 C2.01822917 0.06510417 4.03645833 0.13020833 6.0546875 0.1953125 C5.7246875 1.5153125 5.3946875 2.8353125 5.0546875 4.1953125 C3.4046875 4.1953125 1.7546875 4.1953125 0.0546875 4.1953125 C0.3846875 5.8453125 0.7146875 7.4953125 1.0546875 9.1953125 C2.7046875 9.1953125 4.3546875 9.1953125 6.0546875 9.1953125 C6.0546875 10.1853125 6.0546875 11.1753125 6.0546875 12.1953125 C2.94875297 13.17146335 1.36695251 13.29940084 -1.7578125 12.2578125 C-3.9453125 10.1953125 -3.9453125 10.1953125 -4.328125 8.28125 C-4.3828125 6.1328125 -4.3828125 6.1328125 -3.9453125 2.1953125 C-1.9453125 0.1953125 -1.9453125 0.1953125 0 0 Z " fill="#010101" transform="translate(385.9453125,172.8046875)"/>
<path d="M0 0 C1.67542976 0.28604898 3.34385343 0.61781233 5 1 C5 1.66 5 2.32 5 3 C3.68 3 2.36 3 1 3 C1 3.66 1 4.32 1 5 C1.99 5 2.98 5 4 5 C4 5.99 4 6.98 4 8 C3.01 8 2.02 8 1 8 C1 10.97 1 13.94 1 17 C0.01 17 -0.98 17 -2 17 C-2 14.03 -2 11.06 -2 8 C-2.66 8 -3.32 8 -4 8 C-4 7.01 -4 6.02 -4 5 C-3.34 5 -2.68 5 -2 5 C-1.7834375 4.0409375 -1.7834375 4.0409375 -1.5625 3.0625 C-1 1 -1 1 0 0 Z " fill="#010101" transform="translate(583,168)"/>
<path d="M0 0 C2.64 0 5.28 0 8 0 C8 0.99 8 1.98 8 3 C6.68 3.33 5.36 3.66 4 4 C3.67 6.64 3.34 9.28 3 12 C2.01 12 1.02 12 0 12 C0 8.04 0 4.08 0 0 Z " fill="#010101" transform="translate(183,173)"/>
<path d="M0 0 C0.99 0 1.98 0 3 0 C3 5.61 3 11.22 3 17 C2.01 17 1.02 17 0 17 C0 11.39 0 5.78 0 0 Z " fill="#000000" transform="translate(504,168)"/>
<path d="M0 0 C0.66 0 1.32 0 2 0 C2 5.61 2 11.22 2 17 C1.01 17 0.02 17 -1 17 C-1.02684679 14.35409986 -1.04676357 11.70846904 -1.0625 9.0625 C-1.07087891 8.30775391 -1.07925781 7.55300781 -1.08789062 6.77539062 C-1.09652441 4.85005687 -1.05224333 2.92464419 -1 1 C-0.67 0.67 -0.34 0.34 0 0 Z " fill="#010101" transform="translate(631,168)"/>
<path d="M0 0 C0.99 0.33 1.98 0.66 3 1 C3 4.3 3 7.6 3 11 C1.68 11 0.36 11 -1 11 C-1.02688151 9.35425434 -1.04634123 7.70838587 -1.0625 6.0625 C-1.07410156 5.14597656 -1.08570313 4.22945312 -1.09765625 3.28515625 C-1 1 -1 1 0 0 Z " fill="#000000" transform="translate(207,173)"/>
<path d="M0 0 C0.99 0 1.98 0 3 0 C3 3.96 3 7.92 3 12 C2.01 12 1.02 12 0 12 C0 8.04 0 4.08 0 0 Z " fill="#010101" transform="translate(703,173)"/>
<path d="M0 0 C0.99 0.33 1.98 0.66 3 1 C2.67 2.65 2.34 4.3 2 6 C1.01 6 0.02 6 -1 6 C-1.042721 4.33388095 -1.04063832 2.66617115 -1 1 C-0.67 0.67 -0.34 0.34 0 0 Z " fill="#010101" transform="translate(436,182)"/>
<path d="M0 0 C0.99 0.33 1.98 0.66 3 1 C3 1.66 3 2.32 3 3 C1.68 3 0.36 3 -1 3 C-0.67 2.01 -0.34 1.02 0 0 Z " fill="#000000" transform="translate(207,169)"/>
<path d="M0 0 C0.99 0 1.98 0 3 0 C3 0.99 3 1.98 3 3 C2.01 3 1.02 3 0 3 C0 2.01 0 1.02 0 0 Z " fill="#010101" transform="translate(703,169)"/>
</svg>
